<svg width="279" height="76" viewBox="0 0 279 76" fill="none" xmlns="http://www.w3.org/2000/svg">
<path d="M29.4226 0.255309L80.7439 0.255303L51.5745 75.4701L0 75.4701L29.4226 0.255309Z" fill="white"/>
<path d="M85.5372 5.75067e-06L136.858 0L107.689 75.2148L56.1146 75.2148L85.5372 5.75067e-06Z" fill="#2C41CB"/>
<path d="M139.034 75.607V0H165.466C170.733 0 175.077 0.910632 178.498 2.73189C181.919 4.52854 184.467 6.95279 186.14 10.0046C187.814 13.0319 188.651 16.3913 188.651 20.0831C188.651 23.3318 188.072 26.0145 186.915 28.1311C185.783 30.2477 184.282 31.9213 182.412 33.1519C180.566 34.3825 178.56 35.2931 176.394 35.8838V36.6221C178.708 36.7698 181.033 37.582 183.371 39.0587C185.71 40.5354 187.666 42.652 189.241 45.4085C190.816 48.165 191.604 51.5368 191.604 55.5239C191.604 59.3141 190.743 62.7228 189.02 65.75C187.297 68.7772 184.577 71.1769 180.861 72.9489C177.145 74.7209 172.308 75.607 166.352 75.607H139.034ZM148.189 67.4851H166.352C172.333 67.4851 176.579 66.3284 179.089 64.0149C181.624 61.6768 182.891 58.8464 182.891 55.5239C182.891 52.9642 182.239 50.6015 180.935 48.4357C179.63 46.2453 177.772 44.4978 175.36 43.1934C172.948 41.8644 170.093 41.1999 166.795 41.1999H148.189V67.4851ZM148.189 33.2257H165.171C167.928 33.2257 170.413 32.6843 172.628 31.6013C174.868 30.5184 176.64 28.9925 177.945 27.0236C179.274 25.0546 179.938 22.7412 179.938 20.0831C179.938 16.7605 178.781 13.9425 176.468 11.629C174.154 9.29089 170.487 8.12184 165.466 8.12184H148.189V33.2257Z" fill="white"/>
<path d="M215.803 0V75.607H206.648V0H215.803Z" fill="white"/>
<path d="M234.161 75.607V0H243.316V67.4851H278.462V75.607H234.161Z" fill="white"/>
</svg>
