<svg width="149" height="55" viewBox="0 0 149 55" fill="none" xmlns="http://www.w3.org/2000/svg">
<path d="M28.4884 5.89535C29.8581 5.89535 30.9685 4.78497 30.9685 3.41526C30.9685 2.04555 29.8581 0.935181 28.4884 0.935181C27.1187 0.935181 26.0083 2.04555 26.0083 3.41526C26.0083 4.78497 27.1187 5.89535 28.4884 5.89535Z" fill="#5D2B9E"/>
<path d="M40.4677 0V3.40586C40.4672 5.64921 39.8373 7.84741 38.6495 9.75054C37.4618 11.6537 35.7639 13.1854 33.7489 14.1715C33.1877 14.4511 32.7161 14.8825 32.3877 15.4167C32.0593 15.9508 31.8873 16.5664 31.8912 17.1934V22.5344C31.8912 23.1015 31.7496 23.6596 31.4793 24.1581C31.2089 24.6567 30.8184 25.0798 30.343 25.3891C29.7906 25.7499 29.1452 25.9425 28.4853 25.9433H28.3367C28.3572 25.9016 28.3738 25.8581 28.3862 25.8133C28.5923 25.1871 28.6095 24.5141 28.4358 23.8781C28.2894 23.3288 28.0079 22.8249 27.6169 22.4122C27.2259 21.9996 26.7378 21.6914 26.1972 21.5157L25.0794 21.138V17.1934C25.0829 16.5664 24.9108 15.951 24.5824 15.4169C24.2541 14.8828 23.7827 14.4514 23.2217 14.1715C21.2075 13.1846 19.5105 11.6527 18.3233 9.74966C17.1362 7.84663 16.5066 5.6488 16.506 3.40586V0H20.0728C20.9381 0.000819767 21.7677 0.344908 22.3795 0.956742C22.9914 1.56858 23.3355 2.39817 23.3363 3.26343C23.3352 4.6089 23.8365 5.90629 24.742 6.9015C25.6382 7.89495 26.8922 8.49188 28.2283 8.56108C28.9267 8.59548 29.6247 8.48762 30.2801 8.24407C30.9355 8.00052 31.5346 7.62635 32.041 7.14425C32.5474 6.66216 32.9506 6.08221 33.2261 5.43958C33.5016 4.79695 33.6436 4.10505 33.6436 3.40586V3.25414C33.6461 2.39024 33.991 1.56255 34.6027 0.95255C35.2145 0.342546 36.0431 -3.49942e-06 36.9071 0L40.4677 0Z" fill="#853DE2"/>
<path d="M6.94795 21.3175C8.31766 21.3175 9.42803 20.2071 9.42803 18.8374C9.42803 17.4677 8.31766 16.3573 6.94795 16.3573C5.57824 16.3573 4.46786 17.4677 4.46786 18.8374C4.46786 20.2071 5.57824 21.3175 6.94795 21.3175Z" fill="#03958C"/>
<path d="M28.3801 25.7978C28.3676 25.8426 28.3511 25.8861 28.3305 25.9279C28.2965 25.8969 28.2562 25.869 28.2191 25.8412C27.6832 25.4489 27.0433 25.2237 26.3799 25.194C25.8133 25.1646 25.2483 25.2772 24.7362 25.5216C24.2241 25.766 23.7813 26.1345 23.4478 26.5935L22.7449 27.5565L19.0016 26.3397C18.4068 26.142 17.7685 26.1146 17.159 26.2607C16.5494 26.4068 15.9929 26.7205 15.5524 27.1663C13.9932 28.7767 12.0137 29.9176 9.83873 30.4595C7.66372 31.0013 5.38035 30.9224 3.24795 30.2316L0 29.1727L1.10226 25.7854C1.37024 24.9627 1.95371 24.2799 2.7246 23.8869C3.49549 23.4939 4.39082 23.4228 5.21406 23.6893L5.35648 23.7357C6.04727 23.9601 6.77769 24.0358 7.49981 23.958C8.22193 23.8802 8.91945 23.6506 9.54659 23.2842C10.1737 22.9179 10.7163 22.4231 11.1388 21.8323C11.5613 21.2415 11.854 20.568 11.9979 19.8561C12.5336 17.2646 10.9173 14.7071 8.40008 13.8897C7.99198 13.7581 7.6139 13.5471 7.28751 13.269C6.96112 12.9909 6.69286 12.6511 6.49811 12.2691C6.30336 11.8871 6.18595 11.4704 6.15263 11.0429C6.11931 10.6154 6.17073 10.1855 6.30393 9.7779L7.40309 6.39062L10.651 7.43096C12.7723 8.12341 14.6584 9.39372 16.0975 11.0991C17.5365 12.8045 18.4715 14.8775 18.7972 17.085C18.887 17.7151 19.1507 18.3077 19.5587 18.7961C19.9667 19.2846 20.5029 19.6495 21.107 19.8499L25.0795 21.138L26.1972 21.5002C26.7379 21.6759 27.2259 21.9841 27.617 22.3968C28.008 22.8094 28.2895 23.3134 28.4358 23.8627C28.6075 24.4992 28.5881 25.1722 28.3801 25.7978Z" fill="#04D5C9"/>
<path d="M14.9579 46.5672C16.3276 46.5672 17.438 45.4568 17.438 44.0871C17.438 42.7174 16.3276 41.6071 14.9579 41.6071C13.5882 41.6071 12.4778 42.7174 12.4778 44.0871C12.4778 45.4568 13.5882 46.5672 14.9579 46.5672Z" fill="#B14A47"/>
<path d="M28.3243 25.9465C28.326 25.9526 28.326 25.959 28.3243 25.9651C28.2833 25.988 28.2439 26.0138 28.2067 26.0425C27.844 26.3052 27.5367 26.637 27.3024 27.0186C27.0681 27.4003 26.9114 27.8245 26.8412 28.2668C26.7711 28.7091 26.7888 29.1609 26.8935 29.5964C26.9981 30.0318 27.1877 30.4424 27.4512 30.8045L28.1416 31.755L25.8226 34.9503C25.4515 35.4664 25.2322 36.0759 25.1895 36.7101C25.1468 37.3443 25.2825 37.9778 25.5811 38.5389C26.61 40.5162 27.0682 42.7409 26.9041 44.9639C26.7401 47.1868 25.9603 49.3202 24.6522 51.125L22.6427 53.8745L19.8809 51.8681C19.5185 51.6051 19.2115 51.2732 18.9775 50.8915C18.7435 50.5097 18.587 50.0855 18.5172 49.6432C18.4473 49.2009 18.4653 48.7491 18.5702 48.3138C18.6751 47.8784 18.8648 47.4681 19.1285 47.1061C19.932 46.0004 20.2634 44.6208 20.0497 43.2708C19.836 41.9208 19.0948 40.7109 17.9891 39.9074C16.8834 39.1039 15.5038 38.7725 14.1537 38.9862C12.8037 39.1999 11.5939 39.9411 10.7904 41.0468C10.5276 41.4099 10.1957 41.7176 9.81374 41.9521C9.43181 42.1867 9.00732 42.3436 8.56464 42.4138C8.12195 42.4839 7.66976 42.4661 7.234 42.3611C6.79823 42.2562 6.38747 42.0663 6.02525 41.8023L3.26031 39.7959L5.26358 37.0465C6.57545 35.243 8.36425 33.841 10.429 32.9982C12.4938 32.1553 14.7526 31.905 16.9519 32.2752C17.5779 32.3855 18.2223 32.3183 18.8121 32.0814C19.402 31.8445 19.9138 31.4472 20.2896 30.9345L22.7449 27.5565L23.4354 26.606C23.7689 26.1469 24.2117 25.7785 24.7238 25.5341C25.2359 25.2897 25.8009 25.1771 26.3675 25.2065C27.0309 25.2362 27.6708 25.4613 28.2067 25.8536C28.2438 25.8815 28.2841 25.9093 28.3181 25.9403L28.3243 25.9465Z" fill="#FD6A65"/>
<path d="M41.4492 46.7502C42.8189 46.7502 43.9293 45.6398 43.9293 44.2701C43.9293 42.9004 42.8189 41.79 41.4492 41.79C40.0795 41.79 38.9691 42.9004 38.9691 44.2701C38.9691 45.6398 40.0795 46.7502 41.4492 46.7502Z" fill="#B18823"/>
<path d="M53.1468 39.9909L50.385 41.9973C50.0228 42.2613 49.612 42.4512 49.1763 42.5561C48.7405 42.661 48.2883 42.6789 47.8456 42.6087C47.4029 42.5385 46.9784 42.3817 46.5965 42.1471C46.2146 41.9125 45.8827 41.6049 45.6199 41.2418C45.222 40.6943 44.7202 40.2305 44.1431 39.877C43.566 39.5234 42.925 39.287 42.2565 39.1812C41.588 39.0754 40.9053 39.1023 40.2472 39.2603C39.5891 39.4184 38.9686 39.7045 38.4212 40.1024C37.8737 40.5002 37.4099 41.002 37.0563 41.5791C36.7028 42.1562 36.4663 42.7973 36.3605 43.4658C36.2547 44.1342 36.2816 44.817 36.4397 45.475C36.5977 46.1331 36.8839 46.7536 37.2817 47.3011C37.5462 47.6628 37.7367 48.073 37.8424 48.5085C37.948 48.9439 37.9667 49.3958 37.8974 49.8385C37.8281 50.2811 37.6721 50.7058 37.4384 51.088C37.2047 51.4703 36.8979 51.8027 36.5355 52.0662L33.7706 54.0757L31.7643 51.3107C30.4552 49.5057 29.6749 47.3717 29.5108 45.1481C29.3468 42.9244 29.8054 40.699 30.8354 38.7214C31.1346 38.16 31.2706 37.5259 31.2279 36.8911C31.1852 36.2563 30.9656 35.6462 30.5939 35.1298L28.1417 31.7549L27.4512 30.8044C27.1877 30.4423 26.9982 30.0317 26.8935 29.5963C26.7888 29.1608 26.7711 28.709 26.8413 28.2667C26.9114 27.8244 27.0682 27.4002 27.3025 27.0185C27.5368 26.6369 27.844 26.3051 28.2067 26.0424C28.244 26.0137 28.2833 25.9879 28.3243 25.965C28.3243 25.965 28.3243 25.965 28.3243 25.965C28.3243 26.0083 28.3491 26.0548 28.3615 26.1012C28.5632 26.73 28.9468 27.2849 29.4638 27.6958C29.905 28.0538 30.4288 28.2957 30.9874 28.3996C31.546 28.5034 32.1218 28.4658 32.6622 28.2902L33.7737 27.928L36.0928 31.1233C36.4688 31.6365 36.9811 32.0341 37.5716 32.2711C38.1621 32.508 38.8071 32.5748 39.4336 32.464C41.6325 32.0941 43.891 32.3444 45.9555 33.1866C48.0201 34.0288 49.8092 35.4298 51.1219 37.2322L53.1468 39.9909Z" fill="#FDC332"/>
<path d="M49.8122 21.6147C51.1819 21.6147 52.2923 20.5043 52.2923 19.1346C52.2923 17.7649 51.1819 16.6545 49.8122 16.6545C48.4425 16.6545 47.3321 17.7649 47.3321 19.1346C47.3321 20.5043 48.4425 21.6147 49.8122 21.6147Z" fill="#0163B1"/>
<path d="M56.757 29.4761L53.5122 30.5289C51.3795 31.2199 49.0959 31.2993 46.9204 30.758C44.745 30.2167 42.7648 29.0765 41.2046 27.4667C40.7673 27.0218 40.2146 26.7076 39.6086 26.5594C39.0026 26.4112 38.3673 26.4348 37.774 26.6276L33.8077 27.9156L32.6962 28.2779C32.1558 28.4535 31.5801 28.491 31.0214 28.3872C30.4628 28.2834 29.939 28.0414 29.4978 27.6834C28.9808 27.2725 28.5973 26.7176 28.3955 26.0889C28.3955 26.0424 28.3677 25.996 28.3584 25.9526H28.4853C29.1461 25.949 29.7916 25.7532 30.3431 25.3891C30.8188 25.0795 31.2096 24.6559 31.48 24.1568C31.7504 23.6577 31.8917 23.0989 31.8912 22.5313V21.364L35.6438 20.1472C36.2482 19.9479 36.7847 19.5832 37.1924 19.0945C37.6001 18.6058 37.8627 18.0126 37.9505 17.3823C38.2801 15.1757 39.2181 13.1048 40.6592 11.4017C42.1003 9.69858 43.9875 8.4308 46.1091 7.74059L49.3539 6.68787L50.4686 10.0659C50.6018 10.4743 50.6532 10.905 50.6198 11.3333C50.5864 11.7616 50.4689 12.1791 50.2739 12.5619C50.0789 12.9447 49.8103 13.2853 49.4835 13.5641C49.1566 13.843 48.778 14.0546 48.3693 14.1869C47.3088 14.5277 46.3818 15.1926 45.7192 16.088C45.0565 16.9834 44.6915 18.0642 44.6755 19.1781C44.6752 19.6163 44.7336 20.0526 44.8489 20.4754C45.0319 21.1473 45.3491 21.7752 45.7812 22.3214C46.2133 22.8675 46.7515 23.3206 47.3633 23.6532C47.9751 23.9859 48.6479 24.1913 49.3412 24.2571C50.0345 24.3229 50.734 24.2477 51.3974 24.0361C51.8235 23.8965 52.273 23.8425 52.72 23.8771C53.167 23.9116 53.6028 24.0341 54.0023 24.2375C54.4019 24.4409 54.7574 24.7211 55.0484 25.0622C55.3394 25.4033 55.5602 25.7985 55.6981 26.2251L56.757 29.4761Z" fill="#018EFE"/>
<path d="M69.5754 28.7239C68.1305 28.7239 66.9859 28.4504 66.1417 27.9034C65.3064 27.3712 64.6799 26.5675 64.3676 25.6276C64.012 24.5345 63.8415 23.3897 63.8629 22.2404V15.2243C63.8372 14.0443 64.0077 12.8682 64.3676 11.7441C64.6762 10.8079 65.3042 10.01 66.1417 9.49008C66.9839 8.95753 68.1285 8.69228 69.5754 8.69435C70.9708 8.69435 72.0679 8.9276 72.8667 9.3941C73.641 9.83641 74.2367 10.535 74.5511 11.3695C74.8986 12.3179 75.0666 13.3227 75.0465 14.3326V15.9736H71.1886V14.1406C71.1911 13.7174 71.1673 13.2945 71.1174 12.8743C71.0864 12.5204 70.9482 12.1844 70.721 11.9113C70.5717 11.7726 70.3944 11.6675 70.2011 11.6029C70.0078 11.5382 69.8029 11.5157 69.6002 11.5367C69.3909 11.5178 69.18 11.5425 68.9807 11.6091C68.7814 11.6757 68.5981 11.7828 68.4422 11.9237C68.192 12.2032 68.0322 12.5518 67.984 12.9238C67.9165 13.3747 67.8844 13.8302 67.888 14.2861V23.1568C67.8812 23.6381 67.9259 24.1187 68.0211 24.5904C68.0838 24.9467 68.261 25.2728 68.5258 25.5193C68.8315 25.7569 69.2139 25.8738 69.6002 25.8475C69.7991 25.8673 69.9999 25.8441 70.189 25.7795C70.3781 25.7148 70.5511 25.6102 70.6963 25.4728C70.9286 25.1873 71.0708 24.8392 71.105 24.4727C71.162 24.0333 71.19 23.5907 71.1886 23.1476V21.2527H75.0465V22.8658C75.0649 23.8947 74.9014 24.9188 74.5635 25.8908C74.2561 26.7484 73.6709 27.4786 72.9008 27.9653C72.1143 28.471 71.0059 28.7239 69.5754 28.7239Z" fill="#190C2B"/>
<path d="M80.0593 28.4576V8.95129H84.2794L87.0258 21.2681L89.9424 8.95129H94.0171V28.4576H91.1252L90.8156 15.2243L88.3386 28.4576H85.8616L83.2577 15.1438L82.979 28.4576H80.0593Z" fill="#190C2B"/>
<path d="M99.2962 28.4576V8.95129H106.901V11.6512H103.272V16.9148H106.888V19.7014H103.272V28.4576H99.2962Z" fill="#190C2B"/>
<path d="M112.149 28.4576V8.95129H119.62V11.6977H116.124V16.8653H119.62V19.6519H116.124V25.7576H119.62V28.4576H112.149Z" fill="#190C2B"/>
<path d="M129.992 28.7237C128.948 28.7605 127.912 28.5326 126.98 28.0611C126.169 27.6129 125.529 26.9099 125.159 26.061C124.709 24.9807 124.468 23.8251 124.447 22.6551L127.874 22.0699C127.888 22.7478 127.973 23.4224 128.128 24.0825C128.217 24.5353 128.431 24.9539 128.748 25.29C129.031 25.56 129.409 25.707 129.8 25.6987C130.002 25.7226 130.207 25.6902 130.392 25.6049C130.576 25.5197 130.734 25.385 130.847 25.2157C131.037 24.8778 131.133 24.495 131.125 24.1073C131.15 23.3757 130.943 22.6551 130.534 22.0483C130.085 21.4316 129.565 20.8695 128.986 20.3732L126.946 18.5991C126.244 18.0124 125.645 17.3123 125.174 16.5277C124.692 15.6591 124.454 14.6755 124.487 13.6822C124.487 12.0763 124.957 10.843 125.896 9.98224C126.835 9.12149 128.125 8.69215 129.766 8.69421C130.596 8.66338 131.421 8.82776 132.175 9.17413C132.769 9.46513 133.273 9.91125 133.633 10.4653C133.986 11.0013 134.238 11.5973 134.376 12.2239C134.511 12.8469 134.595 13.4794 134.63 14.1157L131.224 14.6235C131.199 14.0989 131.146 13.5759 131.067 13.0568C131.021 12.67 130.871 12.3028 130.633 11.9948C130.51 11.8614 130.358 11.7577 130.189 11.6912C130.021 11.6247 129.839 11.5972 129.658 11.6109C129.455 11.598 129.252 11.6391 129.07 11.7299C128.887 11.8207 128.733 11.958 128.621 12.1279C128.397 12.4678 128.279 12.8666 128.283 13.2735C128.258 13.8754 128.423 14.4699 128.754 14.9734C129.128 15.4827 129.561 15.9471 130.042 16.3574L132.02 18.0944C132.834 18.7972 133.544 19.6125 134.129 20.5156C134.738 21.5284 135.04 22.6969 134.996 23.8781C135.009 24.7437 134.796 25.5977 134.376 26.3551C133.968 27.0866 133.361 27.6885 132.627 28.0921C131.818 28.5255 130.91 28.743 129.992 28.7237Z" fill="#190C2B"/>
<path d="M142.021 28.4577V11.899H139.021V8.93591H149V11.899H146.034V28.4577H142.021Z" fill="#190C2B"/>
<path d="M72.0122 42.3317C72.0091 42.5886 71.9905 42.845 71.9564 43.0996C71.9205 43.3921 71.8487 43.6791 71.7428 43.9542C71.6452 44.2088 71.4978 44.4414 71.3093 44.6384C71.2168 44.7341 71.1047 44.8088 70.9808 44.8574C70.8569 44.906 70.7239 44.9274 70.591 44.9202C70.4186 44.9303 70.2464 44.8957 70.0913 44.8197C69.9362 44.7438 69.8033 44.6291 69.7055 44.4867C69.4976 44.1754 69.3534 43.8261 69.2813 43.4588C69.1954 43.051 69.1447 42.6367 69.1296 42.2203C69.1141 41.8054 69.1017 41.4741 69.0893 41.2295C68.3246 41.3564 67.566 41.4679 66.8229 41.5639C66.8012 41.8116 66.7548 42.115 66.6866 42.4927C66.6196 42.8503 66.5159 43.1999 66.377 43.5362C66.2424 43.8576 66.0527 44.153 65.8166 44.4093C65.7111 44.5267 65.5815 44.6201 65.4368 44.6832C65.292 44.7462 65.1354 44.7774 64.9775 44.7747C64.8628 44.7798 64.7486 44.7572 64.6445 44.7087C64.5405 44.6601 64.4497 44.5872 64.3799 44.496C64.2294 44.298 64.118 44.0731 64.0517 43.8334C63.9766 43.5752 63.9309 43.3093 63.9155 43.0408C63.9 42.7714 63.8938 42.5454 63.8938 42.3627C63.8929 41.7612 63.9406 41.1607 64.0363 40.5669C64.1333 39.9765 64.2447 39.3882 64.3707 38.802C64.4357 38.4924 64.5193 38.1301 64.6276 37.7152C64.736 37.3004 64.863 36.87 65.0178 36.4303C65.1746 35.9838 65.3566 35.5466 65.5627 35.1206C65.7562 34.71 65.994 34.3217 66.2717 33.9626C66.5262 33.6335 66.8364 33.3516 67.1882 33.1297C67.5301 32.9212 67.9241 32.8138 68.3245 32.8201C68.694 32.8107 69.0588 32.9051 69.3773 33.0926C69.6821 33.2795 69.948 33.5234 70.1606 33.8109C70.391 34.123 70.5784 34.4645 70.7179 34.8265C70.8661 35.2017 70.9922 35.5852 71.0957 35.9752C71.1948 36.3653 71.2815 36.7461 71.3496 37.1177C71.4177 37.4892 71.4796 37.8205 71.5353 38.1085C71.6716 38.8 71.7882 39.4997 71.8852 40.2077C71.9749 40.9121 72.0173 41.6217 72.0122 42.3317ZM68.9159 38.4491C68.9159 38.3221 68.9159 38.1116 68.8912 37.8298C68.876 37.5357 68.8408 37.2429 68.7859 36.9536C68.7409 36.6824 68.6585 36.4188 68.5413 36.1702C68.5076 36.0739 68.4461 35.9898 68.3645 35.9286C68.2829 35.8674 68.1849 35.8319 68.083 35.8265C68.0173 35.8335 67.9544 35.857 67.9002 35.8949C67.8461 35.9328 67.8024 35.9839 67.7734 36.0433C67.6672 36.213 67.582 36.3949 67.5195 36.5851C67.4393 36.8238 67.3721 37.0667 67.3183 37.3127C67.2625 37.579 67.2099 37.8329 67.1666 38.0775C67.1232 38.3221 67.0922 38.545 67.0706 38.7432C67.0489 38.9414 67.0334 39.0807 67.0241 39.1643C67.662 39.1106 68.2905 39.0311 68.9097 38.9259L68.9159 38.4491Z" fill="#FDC332"/>
<path d="M79.954 35.1423C79.9548 35.3387 79.9361 35.5347 79.8983 35.7275C79.8663 35.9014 79.7988 36.0669 79.7001 36.2136C79.6018 36.3536 79.4698 36.4665 79.3162 36.5418C79.1309 36.6266 78.9284 36.6669 78.7248 36.6594C78.5155 36.6751 78.3071 36.6195 78.1334 36.5015C78.0084 36.3997 77.9168 36.2627 77.8702 36.1083C77.8204 35.9459 77.7964 35.7766 77.799 35.6067C77.799 35.4271 77.799 35.2569 77.7743 35.102C77.7635 34.9647 77.7222 34.8314 77.6535 34.7119C77.6152 34.6559 77.5625 34.6114 77.5008 34.583C77.4392 34.5547 77.3711 34.5436 77.3036 34.5509C77.1426 34.5509 77.0126 34.6748 76.9104 34.9194C76.8018 35.1939 76.7189 35.4779 76.6627 35.7677C76.6018 36.0745 76.5594 36.3847 76.5358 36.6966C76.5141 37.0062 76.5048 37.2075 76.5048 37.3158L76.9042 37.2601C77.0419 37.2435 77.1804 37.2352 77.3191 37.2353C77.4752 37.2356 77.6309 37.2522 77.7836 37.2849C77.9385 37.3143 78.0886 37.3654 78.2294 37.4366C78.3646 37.501 78.48 37.6004 78.5638 37.7245C78.6544 37.8586 78.6999 38.018 78.6938 38.1797C78.6917 38.2777 78.6685 38.374 78.6258 38.4622C78.583 38.5503 78.5217 38.6282 78.4461 38.6906C78.2696 38.8453 78.0701 38.9717 77.8548 39.0652C77.6291 39.1651 77.3962 39.2479 77.1581 39.3129C76.9259 39.3748 76.7401 39.4182 76.6008 39.4399C76.6318 40.1737 76.6472 40.9168 76.6472 41.6599C76.6472 42.403 76.6318 43.0563 76.6008 43.7374C76.5903 44.0419 76.4679 44.3318 76.2571 44.5517C76.1512 44.6566 76.0247 44.7382 75.8856 44.7915C75.7465 44.8448 75.5978 44.8686 75.449 44.8614C75.2891 44.866 75.1306 44.8309 74.9877 44.7592C74.8644 44.6901 74.7585 44.5937 74.678 44.4774C74.5891 44.3565 74.5211 44.2215 74.4768 44.078C74.4292 43.9283 74.4001 43.7734 74.3901 43.6167C74.3343 42.9758 74.2941 42.3348 74.26 41.6908C74.226 41.0468 74.2198 40.3997 74.2291 39.7495C74.1574 39.7607 74.0849 39.7659 74.0123 39.765H73.7987C73.6429 39.7622 73.4876 39.7467 73.3343 39.7185C73.1548 39.6878 72.9807 39.6315 72.8172 39.5513C72.659 39.4733 72.5155 39.3686 72.393 39.2417C72.3346 39.1835 72.2887 39.1139 72.2583 39.0371C72.228 38.9604 72.2137 38.8783 72.2165 38.7958C72.2138 38.6868 72.2329 38.5782 72.2728 38.4767C72.3127 38.3751 72.3725 38.2825 72.4487 38.2045C72.6081 38.0403 72.7972 37.9079 73.0061 37.8143C73.225 37.713 73.456 37.6401 73.6934 37.5976C73.9349 37.5543 74.1455 37.5233 74.3127 37.5016V37.2477C74.3165 36.6854 74.3651 36.1242 74.4582 35.5696C74.5446 34.993 74.7168 34.4325 74.9691 33.9069C75.2009 33.411 75.5455 32.9763 75.9754 32.6374C76.4448 32.2887 77.0197 32.1117 77.604 32.1358C77.9783 32.1253 78.3485 32.2162 78.6753 32.399C78.9691 32.5692 79.2201 32.8043 79.4091 33.0864C79.6041 33.3776 79.7447 33.7017 79.824 34.0431C79.9105 34.4031 79.9541 34.7721 79.954 35.1423Z" fill="#FDC332"/>
<path d="M85.5365 38.7215C85.4071 38.7335 85.2766 38.7198 85.1526 38.6812C85.0473 38.6441 84.9389 38.6038 84.8429 38.5605L84.555 38.4428C84.4564 38.4053 84.3503 38.3915 84.2454 38.4026C84.0438 38.408 83.8477 38.4691 83.6788 38.579C83.5087 38.6873 83.3571 38.8222 83.2298 38.9785C83.0941 39.1414 82.9787 39.3202 82.8861 39.511C82.794 39.6988 82.7194 39.8947 82.6632 40.0962C82.6234 40.2879 82.5996 40.4826 82.592 40.6783C82.5765 40.9384 82.5672 41.2201 82.5672 41.5174C82.5672 41.8146 82.5517 42.118 82.5517 42.3967C82.5536 42.6149 82.5433 42.833 82.5208 43.05C82.5208 43.2203 82.4805 43.4215 82.4403 43.6507C82.3981 43.8733 82.3306 44.0905 82.239 44.2978C82.1548 44.4905 82.0326 44.6642 81.8799 44.8087C81.7218 44.9495 81.5155 45.0238 81.3039 45.0161C81.1332 45.0184 80.9669 44.9615 80.8333 44.8551C80.6924 44.7396 80.5783 44.5949 80.4989 44.4309C80.4012 44.2337 80.3264 44.0259 80.276 43.8117C80.2163 43.5752 80.1708 43.3353 80.1398 43.0933C80.1088 42.8364 80.084 42.5794 80.0686 42.3255C80.0531 42.0716 80.0407 41.827 80.0345 41.5979C80.0283 41.3687 80.0345 41.1582 80.0345 40.9786C80.0345 40.799 80.0345 40.6349 80.0345 40.5173C80.0345 40.1426 80.0035 39.768 79.9788 39.3903C79.954 39.0125 79.9385 38.6379 79.9385 38.2632C79.9385 38.031 79.9385 37.7678 79.9695 37.483C79.9886 37.2064 80.0481 36.9342 80.146 36.6749C80.2375 36.4384 80.3827 36.2264 80.5701 36.0556C80.7861 35.875 81.0632 35.7841 81.3442 35.8017C81.5153 35.7991 81.6811 35.861 81.8086 35.9751C81.9387 36.0984 82.0438 36.2456 82.1183 36.4086C82.2003 36.5814 82.2616 36.7632 82.3009 36.9504C82.3339 37.12 82.3536 37.2918 82.3598 37.4644C82.5895 37.0813 82.8815 36.7391 83.2236 36.4519C83.5791 36.1792 84.014 36.0302 84.4621 36.0277C84.717 36.0173 84.9722 36.0413 85.2207 36.099C85.4646 36.1549 85.6971 36.2523 85.908 36.3869C86.1152 36.5198 86.2898 36.6976 86.4189 36.9071C86.5556 37.1335 86.6304 37.3919 86.6357 37.6564C86.6543 37.8025 86.6357 37.9509 86.5816 38.0878C86.5274 38.2248 86.4395 38.3458 86.326 38.4397C86.1009 38.6178 85.8235 38.7168 85.5365 38.7215Z" fill="#FDC332"/>
<path d="M89.6576 38.9786V39.4492C89.6576 39.6133 89.6576 39.7588 89.6421 39.9199C89.6267 40.0809 89.6421 40.344 89.6421 40.6475C89.6421 40.9509 89.6421 41.2667 89.6081 41.629C89.574 41.9912 89.5523 42.338 89.5059 42.7003C89.4624 43.0366 89.3846 43.3675 89.2737 43.688C89.1843 43.9573 89.0399 44.2051 88.8495 44.4156C88.7658 44.5093 88.6639 44.5851 88.55 44.6384C88.4361 44.6916 88.3126 44.7211 88.1869 44.7252C88.0884 44.7302 87.9903 44.7108 87.9011 44.6687C87.812 44.6265 87.7347 44.563 87.676 44.4837C87.5218 44.2858 87.4053 44.0612 87.3324 43.8211C87.2363 43.525 87.17 43.2201 87.1342 42.9108C87.0908 42.5764 87.0599 42.2513 87.0382 41.9355C87.0165 41.6197 87.0042 41.3163 87.0042 41.0655V39.7496C87.0042 39.4399 87.0041 39.0963 87.0382 38.734C87.0723 38.3717 87.097 38.0033 87.1559 37.6317C87.2092 37.2838 87.2953 36.9417 87.4129 36.61C87.5055 36.3313 87.6552 36.0751 87.8525 35.8576C87.9399 35.7633 88.0465 35.6889 88.165 35.6392C88.2836 35.5896 88.4114 35.5658 88.5399 35.5696C88.6793 35.5696 88.8157 35.6108 88.9319 35.6879C89.0481 35.765 89.139 35.8746 89.1932 36.0031C89.3522 36.3208 89.4648 36.6597 89.5276 37.0094C89.6011 37.3862 89.6446 37.7682 89.6576 38.1519C89.6514 38.5173 89.6576 38.7959 89.6576 38.9786ZM89.5307 33.5447C89.5334 33.6872 89.4912 33.827 89.4099 33.9441C89.3266 34.0654 89.2216 34.1704 89.1003 34.2537C88.9737 34.3441 88.8337 34.4141 88.6854 34.4612C88.5518 34.5071 88.4117 34.5311 88.2705 34.5324C88.0722 34.5367 87.877 34.4817 87.7101 34.3745C87.6311 34.3194 87.5677 34.2448 87.526 34.158C87.4842 34.0713 87.4655 33.9752 87.4717 33.8791C87.4688 33.7288 87.5109 33.5812 87.5924 33.4549C87.6693 33.3335 87.7692 33.2283 87.8866 33.1453C88.0092 33.0636 88.144 33.0019 88.286 32.9626C88.4267 32.9205 88.5726 32.8986 88.7195 32.8976C88.9148 32.8966 89.1069 32.9468 89.2768 33.0431C89.363 33.0933 89.4328 33.1674 89.4779 33.2564C89.5229 33.3454 89.5412 33.4455 89.5307 33.5447Z" fill="#FDC332"/>
<path d="M96.5065 38.5604C96.5073 38.6176 96.5021 38.6747 96.491 38.7307C96.4821 38.7881 96.4665 38.8442 96.4445 38.8979C96.3529 39.1407 96.1979 39.3546 95.9956 39.5172C95.7939 39.6837 95.5388 39.7717 95.2773 39.7649C95.087 39.7729 94.8997 39.7159 94.7461 39.6034C94.5925 39.4909 94.4817 39.3294 94.432 39.1456C94.4088 39.0875 94.3973 39.0255 94.3979 38.9629C94.3988 38.8904 94.3937 38.8179 94.3825 38.7462V38.2849C94.3694 38.1609 94.3315 38.0409 94.271 37.9319C94.2401 37.8893 94.1989 37.8553 94.1512 37.8331C94.1035 37.8109 94.051 37.8012 93.9985 37.8049C93.891 37.8164 93.7879 37.8536 93.6979 37.9135C93.6079 37.9733 93.5336 38.054 93.4815 38.1486C93.3025 38.3998 93.1578 38.6736 93.0511 38.9629C92.9227 39.2763 92.8192 39.5993 92.7415 39.929C92.6764 40.1906 92.639 40.4583 92.63 40.7278C92.63 40.8857 92.63 41.0808 92.6609 41.3099C92.6818 41.5346 92.7254 41.7566 92.791 41.9725C92.8464 42.1699 92.9355 42.3564 93.0542 42.5236C93.1016 42.5959 93.1664 42.6551 93.2427 42.6957C93.319 42.7363 93.4043 42.7569 93.4907 42.7558C93.6726 42.7558 93.8496 42.6972 93.9954 42.5886C94.1574 42.4711 94.3096 42.3406 94.4506 42.1985C94.5909 42.0685 94.7426 41.9353 94.9057 41.7991C95.0625 41.662 95.2641 41.5871 95.4723 41.5885C95.5908 41.5855 95.7083 41.6099 95.8157 41.6599C95.9232 41.7098 96.0176 41.784 96.0916 41.8765C96.2437 42.0612 96.3259 42.2936 96.3238 42.5329C96.325 42.8908 96.2252 43.2417 96.0358 43.5454C95.8469 43.8583 95.6036 44.1351 95.3175 44.3628C95.028 44.5926 94.7041 44.7754 94.3577 44.9046C94.0371 45.0313 93.6961 45.0985 93.3514 45.1028C92.8308 45.1192 92.3186 44.9684 91.89 44.6724C91.4901 44.3851 91.16 44.0115 90.924 43.5794C90.6756 43.1272 90.4981 42.6395 90.3976 42.1335C90.2934 41.6449 90.2395 41.1469 90.2366 40.6473C90.2431 40.0524 90.3179 39.4603 90.4595 38.8824C90.6046 38.2648 90.836 37.6706 91.1469 37.1176C91.4456 36.5867 91.8515 36.1237 92.3389 35.7583C92.8407 35.3925 93.449 35.2021 94.0697 35.2165C94.4482 35.2059 94.8221 35.3002 95.1503 35.489C95.4496 35.6667 95.7056 35.9089 95.8996 36.198C96.1008 36.5002 96.2523 36.8326 96.3486 37.1826C96.4466 37.5303 96.4977 37.8896 96.5003 38.2508V38.3932C96.5091 38.4485 96.5112 38.5047 96.5065 38.5604Z" fill="#FDC332"/>
<path d="M104.191 42.4432C104.191 42.6351 104.191 42.8859 104.167 43.1955C104.151 43.4996 104.105 43.8014 104.03 44.0965C103.965 44.3699 103.846 44.6277 103.68 44.8551C103.602 44.9575 103.5 45.0392 103.383 45.0931C103.266 45.1471 103.137 45.1717 103.009 45.1647C102.838 45.1748 102.667 45.1454 102.509 45.0788C102.351 45.0122 102.21 44.9103 102.098 44.7808C101.878 44.5123 101.768 44.1706 101.789 43.8241C101.446 44.1229 101.054 44.3607 100.631 44.5269C100.211 44.6946 99.7635 44.7808 99.3117 44.7808C99.0055 44.7812 98.7042 44.7046 98.4354 44.5579C98.1583 44.41 97.909 44.2152 97.6985 43.982C97.4858 43.7488 97.3132 43.482 97.1877 43.1924C97.0641 42.9189 96.9987 42.6226 96.9957 42.3224C96.988 41.8337 97.1548 41.3584 97.4663 40.9817C97.7931 40.5885 98.186 40.2553 98.6274 39.9971C99.0877 39.7254 99.5782 39.5082 100.089 39.35C100.54 39.2088 101.002 39.1052 101.47 39.0404C101.47 38.9878 101.47 38.9413 101.47 38.898C101.473 38.8495 101.473 38.8009 101.47 38.7524C101.483 38.4613 101.386 38.1758 101.197 37.9536C101.1 37.8493 100.981 37.7674 100.849 37.714C100.717 37.6605 100.575 37.6366 100.432 37.644C100.196 37.6384 99.9615 37.6849 99.7451 37.7802C99.5564 37.8704 99.3743 37.9738 99.2002 38.0898C99.0299 38.2013 98.8596 38.3035 98.6893 38.3995C98.5125 38.4912 98.3157 38.538 98.1165 38.5357C97.8951 38.5411 97.6801 38.4613 97.5159 38.3128C97.4351 38.2406 97.3711 38.1517 97.3283 38.0522C97.2855 37.9528 97.265 37.8451 97.2681 37.7369C97.2655 37.3929 97.3741 37.0573 97.5778 36.7801C97.7889 36.4888 98.055 36.2416 98.3611 36.0525C98.679 35.852 99.0228 35.6958 99.3829 35.5881C99.7103 35.483 100.051 35.4267 100.395 35.4209C100.687 35.4208 100.977 35.4561 101.259 35.5262C101.544 35.5897 101.818 35.694 102.074 35.8358C102.328 35.9777 102.562 36.1549 102.767 36.3622C102.979 36.5715 103.15 36.8182 103.272 37.0898C103.466 37.4867 103.622 37.9015 103.736 38.3283C103.853 38.7745 103.943 39.2274 104.006 39.6844C104.071 40.1488 104.114 40.6133 104.136 41.0746C104.157 41.536 104.191 42.0066 104.191 42.4432ZM101.634 41.9323L101.587 40.8455H101.522C101.502 40.8425 101.481 40.8425 101.46 40.8455C101.283 40.8524 101.107 40.8879 100.94 40.9508C100.73 41.0203 100.529 41.116 100.343 41.2356C100.162 41.3495 99.9976 41.4869 99.8535 41.6443C99.7312 41.7686 99.6604 41.9345 99.6553 42.1088C99.6477 42.1702 99.6586 42.2326 99.6868 42.2878C99.7149 42.343 99.759 42.3885 99.8133 42.4184C99.9285 42.4722 100.055 42.4987 100.182 42.4958C100.442 42.4907 100.698 42.4283 100.931 42.3131C101.172 42.1984 101.406 42.0713 101.634 41.9323Z" fill="#FDC332"/>
</svg>
