<svg width="46" height="46" viewBox="0 0 46 46" fill="none" xmlns="http://www.w3.org/2000/svg">
<g clip-path="url(#clip0_118_725)">
<path d="M23 46C35.7025 46 46 35.7025 46 23C46 10.2975 35.7025 0 23 0C10.2975 0 0 10.2975 0 23C0 35.7025 10.2975 46 23 46Z" fill="#0088CC"/>
<path fill-rule="evenodd" clip-rule="evenodd" d="M16.593 15.1964H29.4895C29.9823 15.1964 30.393 15.2786 30.8859 15.525C31.4609 15.7714 31.7895 16.1821 31.9538 16.5107C31.9538 16.5107 31.9538 16.5928 32.0359 16.5928C32.2823 17.0036 32.4466 17.4964 32.4466 18.0714C32.4466 18.5643 32.3645 19.0571 32.0359 19.55L23.9038 33.5143C23.7395 33.8428 23.4109 34.0071 23.0002 34.0071C22.6716 34.0071 22.343 33.8428 22.0966 33.5143L14.1288 19.55C13.9645 19.2214 13.6359 18.8107 13.6359 18.1536C13.5538 17.5786 13.718 17.0857 13.9645 16.5928C14.2109 16.1 14.6216 15.6893 15.1966 15.525C15.6895 15.1964 16.2645 15.1964 16.593 15.1964ZM22.0145 17.1678H16.593C16.2645 17.1678 16.1002 17.1678 16.018 17.25C15.8538 17.3321 15.7716 17.4143 15.6895 17.5786C15.6073 17.6607 15.6073 17.825 15.6073 17.9893C15.6073 18.0714 15.6895 18.1536 15.8538 18.4821L22.0145 29.1607V17.1678ZM23.9859 17.1678V29.2428L30.2288 18.4821C30.3109 18.3178 30.3109 18.1536 30.3109 17.9893C30.3109 17.825 30.3109 17.6607 30.2288 17.5786C30.1466 17.4964 30.1466 17.4143 30.0645 17.4143L29.9823 17.3321C29.818 17.25 29.6538 17.25 29.4073 17.25H23.9859V17.1678Z" fill="white"/>
</g>
<defs>
<clipPath id="clip0_118_725">
<rect width="46" height="46" fill="white"/>
</clipPath>
</defs>
</svg>
