<svg width="199" height="34" viewBox="0 0 199 34" fill="none" xmlns="http://www.w3.org/2000/svg">
<g clip-path="url(#clip0_117_89)">
<path d="M17.193 33.6949V27.2266C24.0573 27.2266 29.3376 20.4283 26.7305 13.2339C25.7404 10.5608 23.6283 8.41566 20.9552 7.45861C13.7608 4.85148 6.96247 10.1317 6.96247 16.9961H0.494141C0.494141 6.07255 11.0547 -2.44188 22.5062 1.12229C27.5225 2.67337 31.4827 6.66657 33.0338 11.6498C36.5979 23.1344 28.1165 33.6949 17.193 33.6949Z" fill="#0171BB"/>
<path fill-rule="evenodd" clip-rule="evenodd" d="M17.1939 27.2266H10.7585V20.7913H17.1939V27.2266Z" fill="#0171BB"/>
<path fill-rule="evenodd" clip-rule="evenodd" d="M10.7584 32.1768H5.80817V27.2266H10.7584V32.1768Z" fill="#0171BB"/>
<path fill-rule="evenodd" clip-rule="evenodd" d="M5.80738 27.2266H1.64917V23.1014H5.80738V27.2266Z" fill="#0171BB"/>
<path d="M59.8983 9.96647C57.9842 8.6464 55.6081 7.95337 52.8359 7.95337H46.7966V27.1273H52.8359C55.6081 27.1273 57.9842 26.4343 59.8983 25.0152C60.9543 24.2892 61.7794 23.2331 62.3404 21.9461C62.9014 20.659 63.1985 19.1409 63.1985 17.4248C63.1985 15.7418 62.9014 14.2237 62.3404 12.9366C61.7794 11.6826 60.9543 10.6595 59.8983 9.96647ZM50.3278 11.2205H52.2419C54.354 11.2205 56.1031 11.6496 57.4232 12.4416C58.8752 13.3326 59.6343 15.0157 59.6343 17.4248C59.6343 19.933 58.8752 21.6821 57.4232 22.6391C56.1691 23.4641 54.42 23.8932 52.2749 23.8932H50.3608V11.2205H50.3278Z" fill="#0171BB"/>
<path d="M67.4234 7.72229C66.8294 7.72229 66.3344 7.9203 65.9384 8.31632C65.5424 8.71234 65.3113 9.20737 65.3113 9.76839C65.3113 10.3624 65.5094 10.8574 65.9384 11.2535C66.3344 11.6495 66.8294 11.8805 67.4234 11.8805C68.0175 11.8805 68.5125 11.6825 68.9085 11.2535C69.3045 10.8574 69.5356 10.3294 69.5356 9.76839C69.5356 9.17436 69.3375 8.67934 68.9085 8.31632C68.5125 7.9203 67.9845 7.72229 67.4234 7.72229Z" fill="#0171BB"/>
<path d="M69.0723 13.6296H65.6732V27.1603H69.0723V13.6296Z" fill="#0171BB"/>
<path d="M81.449 14.7516C80.4259 13.8276 79.2709 13.2996 78.0498 13.2996C76.1687 13.2996 74.6176 13.9596 73.3966 15.2137C72.1755 16.4677 71.5815 18.1178 71.5815 20.0649C71.5815 21.979 72.1755 23.5961 73.3966 24.9161C74.6176 26.1702 76.1687 26.8302 78.0498 26.8302C79.3699 26.8302 80.4919 26.4672 81.416 25.7412V26.0712C81.416 27.1933 81.119 28.0513 80.5249 28.6783C79.9309 29.2724 79.1059 29.5694 78.0828 29.5694C76.4987 29.5694 75.5417 28.9423 74.3206 27.3253L72.0105 29.5364L72.0765 29.6354C72.5715 30.3284 73.3306 31.0215 74.3536 31.6815C75.3767 32.3415 76.6307 32.6715 78.1488 32.6715C80.1619 32.6715 81.812 32.0445 83.0001 30.8234C84.2211 29.6024 84.8151 27.9523 84.8151 25.9062V13.6296H81.482V14.7516H81.449ZM80.5579 22.738C79.9639 23.3981 79.2049 23.7281 78.2148 23.7281C77.2248 23.7281 76.4657 23.3981 75.9047 22.738C75.3107 22.078 75.0137 21.187 75.0137 20.0979C75.0137 19.0088 75.3107 18.0848 75.9047 17.4248C76.4987 16.7647 77.2578 16.4017 78.2148 16.4017C79.2049 16.4017 79.9639 16.7317 80.5579 17.4248C81.152 18.0848 81.449 19.0088 81.449 20.0979C81.449 21.187 81.119 22.078 80.5579 22.738Z" fill="#0171BB"/>
<path d="M91.0843 13.6296H87.6851V27.1603H91.0843V13.6296Z" fill="#0171BB"/>
<path d="M89.4351 7.72229C88.8411 7.72229 88.346 7.9203 87.95 8.31632C87.554 8.71234 87.323 9.20737 87.323 9.76839C87.323 10.3624 87.521 10.8574 87.95 11.2535C88.346 11.6495 88.8411 11.8805 89.4351 11.8805C90.0291 11.8805 90.5242 11.6825 90.9202 11.2535C91.3162 10.8574 91.5472 10.3294 91.5472 9.76839C91.5472 9.17436 91.3492 8.67934 90.9202 8.31632C90.5242 7.9203 89.9961 7.72229 89.4351 7.72229Z" fill="#0171BB"/>
<path d="M98.5431 9.99951H95.21V13.6627H93.2629V16.7649H95.21V22.3751C95.21 24.1242 95.573 25.3783 96.266 26.1043C96.9591 26.8304 98.1801 27.1934 99.9292 27.1934C100.49 27.1934 101.051 27.1604 101.579 27.1274H101.744V24.0252L100.589 24.0912C99.7642 24.0912 99.2362 23.9592 98.9722 23.6622C98.7081 23.3652 98.5761 22.7712 98.5761 21.8801V16.7319H101.744V13.6297H98.5761V9.99951H98.5431Z" fill="#0171BB"/>
<path d="M121.05 7.95337H117.651V27.1273H121.05V7.95337Z" fill="#0171BB"/>
<path d="M155.405 22.309C154.811 23.002 154.184 23.5961 153.689 23.8931C153.227 24.1901 152.633 24.3551 151.94 24.3551C150.95 24.3551 150.125 23.9921 149.465 23.2331C148.805 22.474 148.475 21.517 148.475 20.3619C148.475 19.2069 148.805 18.2498 149.432 17.5238C150.092 16.7647 150.884 16.4017 151.874 16.4017C152.963 16.4017 154.118 17.0948 155.108 18.2498L157.352 16.1047C155.9 14.1906 154.019 13.2996 151.775 13.2996C149.894 13.2996 148.277 13.9926 146.957 15.3127C145.637 16.6327 144.977 18.3488 144.977 20.3619C144.977 22.375 145.637 24.0581 146.957 25.4112C148.277 26.7642 149.894 27.4243 151.775 27.4243C154.25 27.4243 156.23 26.3682 157.55 24.4211L155.405 22.309Z" fill="#0171BB"/>
<path d="M169.365 15.5107C168.87 14.8506 168.21 14.2896 167.418 13.8936C166.593 13.4976 165.669 13.2996 164.613 13.2996C162.699 13.2996 161.147 13.9926 159.992 15.3787C158.87 16.7647 158.276 18.4478 158.276 20.4609C158.276 22.507 158.903 24.1901 160.157 25.5102C161.378 26.7972 163.062 27.4573 165.075 27.4573C167.352 27.4573 169.266 26.5332 170.652 24.6851L170.718 24.5861L168.507 22.441C168.309 22.705 168.012 22.969 167.748 23.2331C167.418 23.5631 167.088 23.7941 166.758 23.9591C166.263 24.2231 165.669 24.3221 165.042 24.3221C164.085 24.3221 163.326 24.0581 162.732 23.4971C162.171 23.002 161.84 22.309 161.774 21.451H170.784L170.817 20.1969C170.817 19.3059 170.685 18.4808 170.454 17.6888C170.223 16.9297 169.86 16.2037 169.365 15.5107ZM161.939 18.7118C162.105 18.0518 162.402 17.5238 162.831 17.0948C163.293 16.6327 163.887 16.4017 164.613 16.4017C165.438 16.4017 166.065 16.6327 166.494 17.0948C166.89 17.5238 167.121 18.0518 167.187 18.6788H161.939V18.7118Z" fill="#0171BB"/>
<path d="M182.433 14.6527C181.41 13.7617 179.991 13.3326 178.209 13.3326C177.087 13.3326 176.031 13.5967 175.074 14.0587C174.183 14.5207 173.325 15.2467 172.764 16.2368L172.797 16.2698L174.975 18.3489C175.866 16.9298 176.856 16.4348 178.176 16.4348C178.902 16.4348 179.463 16.6328 179.925 16.9958C180.387 17.3588 180.585 17.8539 180.585 18.4479V19.1079C179.727 18.8439 178.902 18.7119 178.077 18.7119C176.394 18.7119 175.008 19.1079 173.985 19.9C172.962 20.692 172.434 21.8471 172.434 23.2661C172.434 24.5202 172.863 25.5763 173.754 26.3353C174.645 27.0613 175.734 27.4574 177.021 27.4574C178.308 27.4574 179.529 26.9293 180.618 26.0383V27.1603H183.951V18.4479C184.017 16.8308 183.489 15.5438 182.433 14.6527ZM176.394 21.9791C176.79 21.7151 177.318 21.5831 178.011 21.5831C178.836 21.5831 179.694 21.7481 180.585 22.0781V23.3981C179.859 24.0912 178.869 24.4212 177.648 24.4212C177.054 24.4212 176.592 24.2892 176.295 24.0252C175.998 23.7612 175.833 23.4642 175.833 23.0351C175.833 22.6061 176.031 22.2431 176.394 21.9791Z" fill="#0171BB"/>
<path d="M197.086 14.9167C196.129 13.8607 194.809 13.3326 193.126 13.3326C191.772 13.3326 190.683 13.7287 189.858 14.4877V13.6627H186.525V27.1933H189.924V19.702C189.924 18.6789 190.155 17.8539 190.65 17.2928C191.145 16.6988 191.772 16.4348 192.664 16.4348C193.423 16.4348 194.017 16.6988 194.446 17.1938C194.875 17.7219 195.106 18.4149 195.106 19.3059V27.1273H198.505V19.3059C198.505 17.4578 198.043 15.9728 197.086 14.9167Z" fill="#0171BB"/>
<path d="M113.394 14.6527C112.371 13.7617 110.952 13.3326 109.17 13.3326C108.047 13.3326 106.991 13.5967 106.034 14.0587C105.143 14.5207 104.285 15.2467 103.724 16.2368L103.757 16.2698L105.935 18.3489C106.826 16.9298 107.816 16.4348 109.137 16.4348C109.863 16.4348 110.424 16.6328 110.886 16.9958C111.348 17.3588 111.546 17.8539 111.546 18.4479V19.1079C110.688 18.8439 109.863 18.7119 109.038 18.7119C107.354 18.7119 105.968 19.1079 104.945 19.9C103.922 20.692 103.394 21.8471 103.394 23.2661C103.394 24.5202 103.823 25.5763 104.714 26.3353C105.605 27.0613 106.694 27.4574 107.981 27.4574C109.269 27.4574 110.49 26.9293 111.579 26.0383V27.1603H114.912V18.4479C114.945 16.8308 114.417 15.5438 113.394 14.6527ZM107.354 21.9791C107.75 21.7151 108.278 21.5831 108.972 21.5831C109.797 21.5831 110.655 21.7481 111.546 22.0781V23.3981C110.82 24.0912 109.83 24.4212 108.608 24.4212C108.014 24.4212 107.552 24.2892 107.255 24.0252C106.958 23.7612 106.793 23.4642 106.793 23.0351C106.793 22.6061 106.958 22.2431 107.354 21.9791Z" fill="#0171BB"/>
<path d="M133.392 27.4243C127.947 27.4243 123.492 23.0021 123.492 17.5238C123.492 12.0455 127.914 7.62329 133.392 7.62329C138.838 7.62329 143.293 12.0455 143.293 17.5238C143.293 23.0021 138.838 27.4243 133.392 27.4243ZM133.392 11.1545C129.861 11.1545 126.99 14.0256 126.99 17.5568C126.99 21.088 129.861 23.9591 133.392 23.9591C136.924 23.9591 139.795 21.088 139.795 17.5568C139.795 14.0256 136.924 11.1545 133.392 11.1545Z" fill="#0171BB"/>
</g>
<defs>
<clipPath id="clip0_117_89">
<rect width="199" height="33.9917" fill="white"/>
</clipPath>
</defs>
</svg>
