<svg width="71" height="72" viewBox="0 0 71 72" fill="none" xmlns="http://www.w3.org/2000/svg">
<path d="M11.7655 11.4293C15.097 8.18433 20.7521 8.0136 27.1483 10.2831C33.5544 12.556 40.7528 17.2902 47.2319 23.9422C53.7112 30.5943 58.2548 37.9153 60.3584 44.3791C62.4585 50.8327 62.1391 56.4816 58.8076 59.7264C55.4761 62.971 49.8213 63.1412 43.4254 60.872C37.0193 58.599 29.8204 53.8642 23.3412 47.2122C16.862 40.5601 12.3189 33.2397 10.2154 26.776C8.11517 20.3224 8.43422 14.6743 11.7655 11.4293Z" stroke="#383838" stroke-width="0.291564"/>
<path d="M11.7153 59.6766C8.39065 56.4246 8.08303 50.7753 10.1969 44.326C12.3141 37.8667 16.8726 30.5558 23.3657 23.9175C29.859 17.2791 37.0679 12.5595 43.4788 10.3C49.8796 8.04425 55.5346 8.22681 58.8592 11.4787C62.1835 14.7307 62.4906 20.3797 60.3769 26.8286C58.2597 33.2879 53.7006 40.5994 47.2074 47.2378C40.7142 53.8761 33.5059 58.5951 27.0951 60.8546C20.6942 63.1105 15.0401 62.9283 11.7153 59.6766Z" stroke="#383838" stroke-width="0.291564"/>
<circle cx="35.3765" cy="35.6543" r="21.5028" stroke="#383838" stroke-width="0.291564"/>
<circle cx="13.7285" cy="35.5812" r="1.31203" fill="#383838"/>
<circle cx="56.5881" cy="35.5812" r="1.31203" fill="#383838"/>
<circle cx="35.3045" cy="14.0051" r="1.31203" fill="#383838"/>
<circle cx="35.3045" cy="57.303" r="1.31203" fill="#383838"/>
<path d="M32.8188 44.0715C32.7352 44.5758 32.5705 45.0058 32.3245 45.3616C32.0801 45.7158 31.7815 45.9873 31.4289 46.176C31.0777 46.3632 30.6995 46.4568 30.2942 46.4568C29.8688 46.4568 29.5037 46.3578 29.199 46.1598C28.8942 45.9603 28.6746 45.6748 28.54 45.3036C28.4069 44.9323 28.3837 44.4868 28.4704 43.967C28.5539 43.4643 28.7179 43.0342 28.9623 42.6769C29.2067 42.3196 29.506 42.0465 29.8603 41.8578C30.2145 41.6691 30.5966 41.5747 31.0065 41.5747C31.4289 41.5747 31.7908 41.6745 32.0925 41.8741C32.3957 42.0721 32.6138 42.3575 32.7468 42.7303C32.8814 43.1031 32.9054 43.5501 32.8188 44.0715ZM31.9718 43.967C32.0291 43.6159 32.0236 43.3197 31.9556 43.0783C31.8891 42.837 31.7707 42.6553 31.6006 42.533C31.4304 42.4093 31.2208 42.3474 30.9717 42.3474C30.7026 42.3474 30.4535 42.4147 30.2246 42.5493C29.9972 42.6823 29.8038 42.8772 29.6445 43.134C29.4867 43.3908 29.3784 43.7033 29.3196 44.0715C29.2577 44.4242 29.2616 44.7204 29.3312 44.9602C29.4008 45.1999 29.5215 45.3809 29.6932 45.5031C29.8649 45.6238 30.0745 45.6841 30.322 45.6841C30.5896 45.6841 30.8372 45.6176 31.0646 45.4846C31.2919 45.3515 31.4845 45.1574 31.6423 44.9022C31.8017 44.6469 31.9115 44.3352 31.9718 43.967ZM32.8836 46.3918L33.4776 42.8277H34.2921L34.1923 43.4218H34.2294C34.3269 43.216 34.4646 43.0575 34.6425 42.9461C34.8219 42.8331 35.0137 42.7767 35.2179 42.7767C35.2659 42.7767 35.3177 42.779 35.3734 42.7836C35.4291 42.7867 35.477 42.7922 35.5173 42.7999L35.3873 43.5726C35.3517 43.5602 35.296 43.5494 35.2202 43.5401C35.146 43.5293 35.0725 43.5238 34.9998 43.5238C34.8467 43.5238 34.7043 43.5571 34.5729 43.6236C34.4429 43.6886 34.3331 43.7791 34.2434 43.8951C34.1536 44.0111 34.0956 44.1449 34.0693 44.2965L33.7236 46.3918H32.8836ZM35.1911 46.3918L35.9801 41.6397H36.82L36.5277 43.4171H36.5648C36.6205 43.3305 36.6955 43.2384 36.7899 43.141C36.8858 43.042 37.0072 42.9577 37.1542 42.8881C37.3011 42.8169 37.479 42.7813 37.6879 42.7813C37.9632 42.7813 38.1999 42.8517 38.3979 42.9925C38.5959 43.1317 38.7374 43.3382 38.8225 43.612C38.9076 43.8843 38.9177 44.2184 38.8527 44.6144C38.7877 45.0058 38.6686 45.3384 38.4954 45.6122C38.3221 45.886 38.1125 46.0948 37.8665 46.2387C37.6206 46.3826 37.3576 46.4545 37.0776 46.4545C36.8734 46.4545 36.7094 46.4205 36.5857 46.3524C36.4635 46.2843 36.3699 46.2023 36.3049 46.1064C36.2399 46.009 36.1928 45.9169 36.1634 45.8303H36.11L36.0172 46.3918H35.1911ZM36.3119 44.6098C36.2747 44.8403 36.274 45.0422 36.3095 45.2154C36.3467 45.3887 36.4194 45.524 36.5277 45.6215C36.6375 45.7174 36.7821 45.7653 36.9616 45.7653C37.1457 45.7653 37.3081 45.7158 37.4489 45.6168C37.5912 45.5163 37.7087 45.3794 37.8016 45.2061C37.8944 45.0313 37.9593 44.8325 37.9965 44.6098C38.032 44.3886 38.032 44.1921 37.9965 44.0204C37.9624 43.8487 37.8905 43.7141 37.7807 43.6167C37.6724 43.5192 37.5254 43.4705 37.3398 43.4705C37.1588 43.4705 36.9979 43.5177 36.8572 43.612C36.7164 43.7064 36.5996 43.8386 36.5068 44.0088C36.414 44.179 36.349 44.3793 36.3119 44.6098ZM38.9431 46.3918L39.5371 42.8277H40.3771L39.783 46.3918H38.9431ZM40.0801 42.3172C39.9455 42.3172 39.8341 42.2724 39.7459 42.1827C39.6577 42.0929 39.6191 41.9854 39.6299 41.8601C39.6407 41.7348 39.6972 41.6273 39.7993 41.5376C39.9029 41.4479 40.0213 41.403 40.1543 41.403C40.2889 41.403 40.3995 41.4479 40.4861 41.5376C40.5743 41.6273 40.613 41.7348 40.6021 41.8601C40.5929 41.9854 40.5364 42.0929 40.4328 42.1827C40.3307 42.2724 40.2131 42.3172 40.0801 42.3172ZM42.6939 42.8277L42.5848 43.4774H40.5382L40.645 42.8277H42.6939ZM41.29 41.9738H42.13L41.5731 45.3198C41.5561 45.4328 41.5592 45.5194 41.5824 45.5797C41.6071 45.6385 41.6466 45.6787 41.7007 45.7004C41.7564 45.722 41.8191 45.7329 41.8887 45.7329C41.9397 45.7329 41.9877 45.729 42.0325 45.7213C42.0774 45.712 42.113 45.705 42.1393 45.7004L42.1764 46.357C42.1254 46.3725 42.0565 46.3895 41.9699 46.4081C41.8848 46.4267 41.7827 46.4375 41.6636 46.4406C41.4501 46.4452 41.2645 46.4127 41.1067 46.3431C40.9505 46.272 40.836 46.1629 40.7633 46.0159C40.6921 45.8674 40.6759 45.6818 40.7146 45.4591L41.29 41.9738Z" fill="#383838"/>
<g clip-path="url(#clip0_118_742)">
<path fill-rule="evenodd" clip-rule="evenodd" d="M35.3774 39.662C31.3283 39.662 28.0154 36.3491 28.0154 32.2632C28.0523 28.2141 31.3283 24.9012 35.4142 24.938C39.4633 24.9749 42.7394 28.2509 42.7394 32.3736C42.7026 36.3859 39.4265 39.662 35.3774 39.662Z" fill="#0090FF"/>
<path fill-rule="evenodd" clip-rule="evenodd" d="M36.0772 31.4172L35.8564 32.5951L37.9546 32.8896L37.8073 33.4417L35.746 33.1472C35.5987 33.6258 35.5251 34.1411 35.3411 34.5828C35.157 35.0982 34.973 35.6135 34.7521 36.092C34.4576 36.7178 33.9423 37.1595 33.2429 37.2699C32.838 37.3436 32.3963 37.3067 32.065 37.0491C31.9545 36.9755 31.8441 36.8282 31.8441 36.7178C31.8441 36.5705 31.9177 36.3865 32.0282 36.3129C32.1018 36.2761 32.2858 36.3129 32.3963 36.3497C32.5067 36.4601 32.6171 36.6074 32.6907 36.7546C32.9116 37.0491 33.2061 37.0859 33.5006 36.865C33.8318 36.5705 34.0159 36.1656 34.1263 35.7607C34.3472 34.8773 34.568 34.0307 34.7521 33.1472V33L32.8012 32.7055L32.8748 32.1534L34.8993 32.4478L35.157 31.3067L33.0588 30.9754L33.1325 30.3865L35.3042 30.681C35.3779 30.4601 35.4147 30.2761 35.4883 30.092C35.6723 29.4294 35.8564 28.7669 36.2981 28.1779C36.7398 27.5889 37.2552 27.2208 38.0282 27.2577C38.3595 27.2577 38.6907 27.3681 38.9116 27.6258C38.9484 27.6626 39.022 27.7362 39.022 27.8098C39.022 27.957 39.022 28.1411 38.9116 28.2515C38.7644 28.3619 38.5803 28.3251 38.4331 28.1779C38.3227 28.0675 38.249 27.957 38.1386 27.8466C37.9177 27.5521 37.5865 27.5153 37.3288 27.773C37.1447 27.957 36.9607 28.2147 36.8503 28.4724C36.5926 29.2454 36.4085 30.0552 36.1509 30.865L38.1754 31.1595L38.0282 31.7116L36.0772 31.4172Z" fill="white"/>
</g>
<defs>
<clipPath id="clip0_118_742">
<rect width="14.7239" height="14.7239" fill="white" transform="translate(28.0156 24.9388)"/>
</clipPath>
</defs>
</svg>
