<svg width="147" height="39" viewBox="0 0 147 39" fill="none" xmlns="http://www.w3.org/2000/svg">
<g clip-path="url(#clip0_127_2)">
<path d="M22.0891 -0.000244141C24.609 -0.000244141 27.0479 0.495632 29.3552 1.46714C30.5797 1.98326 31.7536 2.64106 32.8466 3.41017L32.6138 3.53161L29.6183 5.05973C27.3312 3.78461 24.7304 3.11669 22.0891 3.11669C22.0486 3.11669 22.0082 3.11669 21.9677 3.11669C19.9336 3.13693 17.9501 3.54173 16.0779 4.32098C14.2057 5.11031 12.5258 6.23364 11.0888 7.67067C8.15398 10.6156 6.53478 14.5218 6.53478 18.671C6.53478 19.3491 6.57528 20.0271 6.66636 20.7051L6.6967 20.9176L6.88898 20.8164L32.7454 7.63017L38.0988 4.89781L44.1607 1.8011V5.3026L37.9168 8.49038L34.8503 10.0488L7.59736 23.9637L7.47594 24.0346L6.0794 24.743L4.66258 25.4615V25.4514L4.53104 25.5121L-0.00268555 27.8296V24.328L1.53554 23.5488C2.82077 22.891 3.58989 21.535 3.47857 20.0878C3.44821 19.6122 3.42797 19.1365 3.42797 18.6609C3.42797 16.141 3.92384 13.692 4.89537 11.3847C5.83649 9.15829 7.18244 7.16467 8.89272 5.44427C10.603 3.73402 12.5966 2.37794 14.823 1.43679C17.1202 0.495632 19.5692 -0.000244141 22.0891 -0.000244141Z" fill="black"/>
<path d="M44.1692 9.98853V13.49L42.6311 14.2693C41.3456 14.927 40.5767 16.2831 40.6881 17.7302C40.7284 18.2059 40.7385 18.6916 40.7385 19.1673C40.7385 21.6871 40.2427 24.1362 39.271 26.4435C38.3299 28.6699 36.9839 30.6635 35.2738 32.3839C33.5635 34.1043 31.5598 35.4502 29.3435 36.3913C27.0463 37.3631 24.5973 37.8588 22.0774 37.8588C19.5575 37.8588 17.1186 37.3631 14.8113 36.3913C13.5767 35.8651 12.4027 35.2073 11.3098 34.4383L14.4065 32.8595L14.5279 32.7988C16.815 34.0739 19.426 34.752 22.0774 34.752C22.1179 34.752 22.1482 34.752 22.1887 34.752C24.2228 34.7418 26.2063 34.3371 28.0785 33.5477C29.9507 32.7584 31.6306 31.635 33.0676 30.198C36.0024 27.2632 37.6216 23.3468 37.6216 19.1976C37.6216 18.5196 37.5812 17.8314 37.4901 17.1534L37.4598 16.9409L37.2674 17.0421L11.3907 30.2081L6.03732 32.9405L-0.00427246 36.017V32.5154L6.21948 29.3378L9.2858 27.7793L44.1692 9.98853Z" fill="black"/>
<path d="M71.0665 12.8305H67.6463C66.7859 9.92614 63.9525 8.95461 61.4226 8.95461C59.4896 8.95461 56.0992 9.81481 56.0992 12.618C56.0992 14.8343 57.8603 15.9374 60.1777 16.4535L63.0821 17.1113C66.9174 17.9411 71.5119 19.3883 71.5119 24.4381C71.5119 29.3463 66.948 31.937 61.9688 31.937C56.0589 31.937 52.3248 28.7188 51.6669 23.7095H55.1279C55.7858 27.1705 58.2044 28.9617 62.0397 28.9617C65.7335 28.9617 67.879 27.2008 67.879 24.7417C67.879 22.1105 65.6322 21.0075 62.4851 20.3193L59.3782 19.6615C55.9576 18.9025 52.4966 17 52.4966 12.8204C52.4966 8.05394 57.5062 5.97937 61.5541 5.97937C66.0574 5.98949 70.0952 7.99323 71.0665 12.8305Z" fill="black"/>
<path d="M79.2999 8.23596V12.9012H82.8218V15.4211H79.2999V26.4417C79.2999 28.3746 79.4415 28.8603 81.2329 28.8603H82.8218V31.4915H80.5447C76.9825 31.4915 76.1527 30.692 76.1527 26.8262V15.4211H73.2178V12.9012H76.1527V8.23596H79.2999Z" fill="black"/>
<path d="M93.4633 29.1861C96.226 29.1861 97.7443 27.9414 98.5434 26.1097H101.792C100.932 29.3278 97.9871 31.9489 93.4633 31.9489C87.5836 31.9489 84.3352 27.7289 84.3352 22.2338C84.3352 16.3541 88.2718 12.5895 93.3519 12.5895C99.0194 12.5895 102.44 17.356 102.025 23.2356H87.7151C87.8672 27.2431 90.7005 29.1861 93.4633 29.1861ZM98.7156 20.5437C98.6446 17.9125 96.6814 15.2915 93.362 15.2915C90.5589 15.2915 88.039 16.8095 87.7659 20.5437H98.7156Z" fill="black"/>
<path d="M105.013 31.4925V6.43555H108.16V31.4925H105.013Z" fill="black"/>
<path d="M112.024 31.4925V6.43555H115.172V31.4925H112.024Z" fill="black"/>
<path d="M130.655 20.0578V19.6125C130.655 16.2223 128.752 15.0889 126.435 15.0889C123.844 15.0889 122.326 16.5057 122.184 18.7827H118.936C119.25 14.7752 122.771 12.5286 126.404 12.5286C131.515 12.5286 133.832 14.9776 133.802 20.1995L133.772 24.4802C133.741 27.587 133.913 29.7325 134.257 31.4933H131.08C130.979 30.8052 130.877 30.0462 130.837 28.933C129.693 30.8355 127.76 31.9386 124.481 31.9386C120.99 31.9386 118.086 30.0057 118.086 26.5851C118.076 22.2032 123.014 20.918 130.655 20.0578ZM121.567 26.5244C121.567 28.2853 122.913 29.4592 125.159 29.4592C128.094 29.4592 130.898 28.1133 130.898 23.7212V22.5473C125.19 23.1343 121.567 23.9641 121.567 26.5244Z" fill="black"/>
<path d="M145.235 16.0519C142.331 16.0519 140.884 17.6813 140.884 21.7596V31.5051H137.736V12.9046H140.813V16.1532C141.744 14.0482 143.646 12.8743 146.065 12.8035C146.379 12.8035 146.652 12.8035 146.996 12.8338V16.1835C146.338 16.1228 145.751 16.0519 145.235 16.0519Z" fill="black"/>
</g>
<defs>
<clipPath id="clip0_127_2">
<rect width="147" height="38.1912" fill="white"/>
</clipPath>
</defs>
</svg>
