<svg width="327" height="32" viewBox="0 0 327 32" fill="none" xmlns="http://www.w3.org/2000/svg">
<path fill-rule="evenodd" clip-rule="evenodd" d="M45.3146 0.0195312L30.8553 28.1881H17.2739L23.3251 16.5138H23.0536C18.0614 22.972 10.6129 27.2233 0 28.1881V16.6754C0 16.6754 6.78935 16.2758 10.7806 12.094H0V0.0197538H12.1163V9.95069L12.3882 9.94957L17.3393 0.0197538H26.5025V9.88772L26.7745 9.88727L31.9114 0.0195312H45.3146Z" fill="#146EF5"/>
<path d="M124.388 25.1303H128.294V2.7052H124.388V25.1303Z" fill="#4F4F4F"/>
<path fill-rule="evenodd" clip-rule="evenodd" d="M102.85 24.9013C103.699 25.2543 104.562 25.4308 105.44 25.4308C106.89 25.4308 108.188 25.0778 109.333 24.3718C110.478 23.6658 111.365 22.6927 111.995 21.4524C112.624 20.2026 112.939 18.7858 112.939 17.2021C112.939 15.6183 112.615 14.2016 111.966 12.9518C111.317 11.7019 110.416 10.7336 109.261 10.0467C108.107 9.3502 106.795 9.00674 105.326 9.01628C104.391 9.01628 103.494 9.19755 102.635 9.56009C101.777 9.92263 101.061 10.4378 100.489 11.1057C100.444 11.1565 100.402 11.2079 100.36 11.2597V2.71951H96.4387V25.1303H100.331L100.323 23.0367C100.424 23.1601 100.532 23.2808 100.646 23.3987C101.266 24.0379 102.001 24.5388 102.85 24.9013ZM106.857 21.2807C106.218 21.6718 105.488 21.8674 104.667 21.8674C103.856 21.8674 103.112 21.6671 102.435 21.2663C101.758 20.8561 101.219 20.298 100.818 19.592C100.427 18.886 100.231 18.0846 100.231 17.1878C100.222 16.291 100.412 15.4895 100.803 14.7835C101.204 14.068 101.743 13.5147 102.421 13.1235C103.098 12.7228 103.847 12.5272 104.667 12.5367C105.488 12.5272 106.218 12.718 106.857 13.1092C107.506 13.4908 108.002 14.0394 108.345 14.7549C108.698 15.4609 108.875 16.2719 108.875 17.1878C108.875 18.1037 108.698 18.9146 108.345 19.6206C108.002 20.3266 107.506 20.88 106.857 21.2807Z" fill="#4F4F4F"/>
<path d="M51.1057 4.06473H55.5707L59.5648 18.6513L63.8137 4.06473H67.5346L72.1427 18.3586L75.9779 4.06473H80.0708L74.0317 25.1303H70.1821L65.4962 11.1663L61.1949 25.1303H57.3023L51.1057 4.06473Z" fill="#4F4F4F"/>
<path fill-rule="evenodd" clip-rule="evenodd" d="M86.6644 25.5024C85.1093 25.5119 83.7068 25.1684 82.457 24.472C81.2167 23.766 80.2388 22.7881 79.5233 21.5383C78.8173 20.2884 78.4643 18.8621 78.4643 17.2593C78.4643 15.7042 78.8268 14.297 79.5519 13.0376C80.277 11.7783 81.2597 10.7956 82.4999 10.0896C83.7402 9.38359 85.1236 9.03059 86.6501 9.03059C88.3674 9.03059 89.87 9.41221 91.158 10.1755C92.4555 10.9387 93.4239 12.0216 94.0631 13.424C94.7119 14.8169 94.9456 16.415 94.7643 18.2181H82.506C82.5403 18.9365 82.7195 19.59 83.0437 20.1787C83.4063 20.8275 83.9119 21.3331 84.5607 21.6957C85.2095 22.0582 85.9345 22.2395 86.7359 22.2395C87.3465 22.2299 87.9142 22.125 88.4389 21.9247C88.9637 21.7148 89.4073 21.4333 89.7698 21.0803C90.1419 20.7273 90.4043 20.3266 90.5569 19.8782H94.6498C94.4018 20.9754 93.9057 21.9533 93.1615 22.8119C92.4173 23.661 91.4824 24.3241 90.3566 24.8011C89.2308 25.2782 88.0001 25.5119 86.6644 25.5024ZM83.0581 14.2827C82.8294 14.6814 82.671 15.1107 82.5829 15.5706H90.7086C90.6496 14.9896 90.4703 14.4601 90.1705 13.9821C89.8271 13.4192 89.3596 12.9851 88.7681 12.6799C88.1766 12.365 87.5087 12.2076 86.7646 12.2076C85.9727 12.2076 85.2524 12.3889 84.6036 12.7514C83.9549 13.1139 83.4397 13.6244 83.0581 14.2827Z" fill="#4F4F4F"/>
<path d="M115.816 9.35974C115.816 8.0813 116.107 6.94598 116.689 5.95376C117.27 4.952 118.086 4.17445 119.136 3.62109C120.195 3.0582 121.43 2.76721 122.842 2.74813V6.22567C122.184 6.23521 121.621 6.37354 121.154 6.64068C120.696 6.89827 120.343 7.27513 120.094 7.77124C119.866 8.22796 119.743 8.75746 119.725 9.35974H122.756V12.6655H119.722V25.1303H115.816V12.6655H113.297V9.35974H115.816Z" fill="#4F4F4F"/>
<path fill-rule="evenodd" clip-rule="evenodd" d="M138.226 25.4737C136.633 25.4737 135.207 25.1255 133.947 24.429C132.697 23.723 131.715 22.7499 130.999 21.5096C130.293 20.2598 129.94 18.843 129.94 17.2593C129.94 15.666 130.293 14.2445 130.999 12.9947C131.715 11.7353 132.697 10.7574 133.947 10.061C135.207 9.36451 136.633 9.01628 138.226 9.01628C139.829 9.01628 141.26 9.36451 142.519 10.061C143.788 10.7574 144.776 11.7306 145.482 12.9804C146.188 14.2302 146.545 15.6565 146.555 17.2593C146.545 18.843 146.188 20.2598 145.482 21.5096C144.785 22.7499 143.803 23.723 142.534 24.429C141.265 25.1255 139.829 25.4737 138.226 25.4737ZM138.226 21.8817C139.066 21.8817 139.81 21.6909 140.459 21.3093C141.107 20.9181 141.608 20.3743 141.961 19.6778C142.314 18.9718 142.491 18.1657 142.491 17.2593C142.491 16.3434 142.314 15.5325 141.961 14.8265C141.608 14.1205 141.107 13.5767 140.459 13.195C139.81 12.8039 139.066 12.6083 138.226 12.6083C137.396 12.6083 136.657 12.8039 136.008 13.195C135.369 13.5767 134.873 14.1205 134.52 14.8265C134.167 15.5325 133.995 16.3434 134.004 17.2593C134.004 18.1657 134.181 18.9718 134.534 19.6778C134.896 20.3743 135.393 20.9181 136.022 21.3093C136.661 21.6909 137.396 21.8817 138.226 21.8817Z" fill="#4F4F4F"/>
<path d="M150.777 9.35974H146.426L151.134 25.1303H154.941L158.037 15.0577L161.381 25.1303H165.13L169.853 9.35974H165.918L163.24 19.1759L160.279 9.35974H156.472L153.526 19.3921L150.777 9.35974Z" fill="#4F4F4F"/>
<path d="M185.485 25.89C183.615 25.89 181.942 25.4478 180.469 24.5634C178.995 23.679 177.843 22.44 177.014 20.8462C176.194 19.2525 175.784 17.4284 175.784 15.3741C175.784 13.3105 176.194 11.4819 177.014 9.88816C177.843 8.28521 178.995 7.04155 180.469 6.15716C181.942 5.27278 183.615 4.83059 185.485 4.83059C187.051 4.83059 188.479 5.1346 189.768 5.74261C191.067 6.35062 192.136 7.21198 192.974 8.32667C193.813 9.44136 194.356 10.7311 194.605 12.1958H191.952C191.694 11.2009 191.252 10.3257 190.625 9.57033C189.999 8.80571 189.234 8.21612 188.331 7.80157C187.438 7.38701 186.489 7.17973 185.485 7.17973C184.112 7.17973 182.887 7.52059 181.809 8.2023C180.74 8.8748 179.897 9.83288 179.28 11.0765C178.672 12.311 178.368 13.7435 178.368 15.3741C178.368 16.9863 178.672 18.4096 179.28 19.644C179.897 20.8785 180.74 21.8365 181.809 22.5183C182.887 23.2 184.112 23.5408 185.485 23.5408C186.553 23.5408 187.544 23.3335 188.456 22.919C189.377 22.4952 190.141 21.9056 190.749 21.1502C191.357 20.3948 191.758 19.5196 191.952 18.5247H194.605C194.375 19.9895 193.845 21.2792 193.016 22.3939C192.196 23.4994 191.132 24.3607 189.824 24.9779C188.525 25.586 187.078 25.89 185.485 25.89ZM204.333 25.9038C202.896 25.9038 201.615 25.5675 200.492 24.895C199.368 24.2225 198.488 23.2875 197.852 22.0899C197.217 20.8923 196.899 19.5243 196.899 17.9858C196.899 16.4289 197.217 15.0471 197.852 13.8402C198.488 12.6242 199.368 11.6846 200.492 11.0213C201.615 10.3488 202.896 10.0125 204.333 10.0125C205.779 10.0125 207.069 10.3488 208.202 11.0213C209.345 11.6846 210.229 12.6242 210.855 13.8402C211.491 15.0471 211.809 16.4289 211.809 17.9858C211.809 19.5243 211.496 20.8923 210.869 22.0899C210.243 23.2875 209.358 24.2225 208.216 24.895C207.074 25.5675 205.779 25.9038 204.333 25.9038ZM204.333 23.7066C205.328 23.7066 206.199 23.4625 206.945 22.9743C207.7 22.4768 208.271 21.7951 208.658 20.9291C209.054 20.0632 209.252 19.0821 209.252 17.9858C209.252 16.8803 209.054 15.89 208.658 15.0148C208.271 14.1304 207.7 13.4441 206.945 12.9559C206.199 12.4676 205.328 12.2235 204.333 12.2235C203.338 12.2235 202.472 12.4676 201.735 12.9559C200.998 13.4441 200.432 14.1304 200.035 15.0148C199.639 15.89 199.441 16.8803 199.441 17.9858C199.441 19.0821 199.639 20.0632 200.035 20.9291C200.441 21.7951 201.012 22.4768 201.749 22.9743C202.486 23.4625 203.347 23.7066 204.333 23.7066ZM214.849 10.3165H217.24V13.177H216.825C216.963 12.5874 217.272 12.0531 217.751 11.574C218.239 11.0858 218.829 10.7034 219.52 10.4271C220.22 10.1507 220.947 10.0125 221.703 10.0125C222.449 10.0125 223.135 10.1461 223.762 10.4133C224.388 10.6712 224.913 11.0397 225.337 11.5187C225.77 11.9978 226.088 12.5505 226.291 13.177L225.696 13.1355C225.945 12.5551 226.318 12.03 226.816 11.5602C227.322 11.0812 227.921 10.7034 228.612 10.4271C229.303 10.1507 230.054 10.0125 230.865 10.0125C231.878 10.0217 232.771 10.2382 233.545 10.662C234.319 11.0858 234.923 11.7122 235.356 12.5413C235.789 13.3704 236.005 14.3607 236.005 15.5123V25.5721H233.545V15.5123C233.545 14.7845 233.403 14.1719 233.117 13.6744C232.831 13.1677 232.435 12.79 231.929 12.5413C231.431 12.2834 230.86 12.1498 230.215 12.1406C229.533 12.1406 228.921 12.3018 228.377 12.6242C227.834 12.9374 227.41 13.375 227.106 13.937C226.802 14.4989 226.65 15.1162 226.65 15.7887V25.5721H224.176V15.2635C224.176 14.6555 224.043 14.1166 223.776 13.6468C223.509 13.177 223.126 12.8131 222.629 12.5551C222.14 12.288 221.583 12.1498 220.957 12.1406C220.284 12.1406 219.667 12.3202 219.105 12.6795C218.543 13.0296 218.096 13.5178 217.765 14.1443C217.442 14.7615 217.281 15.4478 217.281 16.2032V25.5721H214.849V10.3165ZM239.639 10.3165H242.03V13.177H241.615C241.754 12.5874 242.062 12.0531 242.541 11.574C243.029 11.0858 243.619 10.7034 244.31 10.4271C245.01 10.1507 245.738 10.0125 246.493 10.0125C247.239 10.0125 247.926 10.1461 248.552 10.4133C249.179 10.6712 249.704 11.0397 250.128 11.5187C250.561 11.9978 250.878 12.5505 251.081 13.177L250.487 13.1355C250.736 12.5551 251.109 12.03 251.606 11.5602C252.113 11.0812 252.712 10.7034 253.403 10.4271C254.093 10.1507 254.844 10.0125 255.655 10.0125C256.668 10.0217 257.562 10.2382 258.336 10.662C259.11 11.0858 259.713 11.7122 260.146 12.5413C260.579 13.3704 260.795 14.3607 260.795 15.5123V25.5721H258.336V15.5123C258.336 14.7845 258.193 14.1719 257.907 13.6744C257.622 13.1677 257.226 12.79 256.719 12.5413C256.221 12.2834 255.65 12.1498 255.005 12.1406C254.324 12.1406 253.711 12.3018 253.168 12.6242C252.624 12.9374 252.2 13.375 251.896 13.937C251.592 14.4989 251.44 15.1162 251.44 15.7887V25.5721H248.967V15.2635C248.967 14.6555 248.833 14.1166 248.566 13.6468C248.299 13.177 247.917 12.8131 247.419 12.5551C246.931 12.288 246.374 12.1498 245.747 12.1406C245.075 12.1406 244.457 12.3202 243.895 12.6795C243.333 13.0296 242.887 13.5178 242.555 14.1443C242.233 14.7615 242.071 15.4478 242.071 16.2032V25.5721H239.639V10.3165ZM274.255 10.3165H276.714V25.5721H274.324V22.2419L274.807 22.0899C274.688 22.7992 274.379 23.4441 273.882 24.0245C273.393 24.6048 272.781 25.0609 272.044 25.3925C271.316 25.7149 270.537 25.8762 269.708 25.8762C268.621 25.8669 267.672 25.632 266.862 25.1714C266.051 24.7108 265.42 24.0521 264.969 23.1954C264.526 22.3294 264.305 21.3022 264.305 20.1138V10.3165H266.765V19.8098C266.765 20.6205 266.903 21.3207 267.18 21.9102C267.465 22.4998 267.866 22.9512 268.382 23.2645C268.907 23.5685 269.529 23.7205 270.247 23.7205C271.003 23.7205 271.68 23.5316 272.279 23.1539C272.887 22.7762 273.366 22.2557 273.716 21.5924C274.075 20.9199 274.255 20.1645 274.255 19.3262V10.3165ZM282.96 25.5721H280.501V10.3165H282.891V13.6468L282.408 13.7988C282.527 13.0894 282.831 12.4446 283.32 11.8642C283.817 11.2838 284.43 10.8324 285.157 10.51C285.894 10.1783 286.677 10.0125 287.507 10.0125C288.594 10.0217 289.542 10.2567 290.353 10.7173C291.164 11.1779 291.79 11.8412 292.232 12.7071C292.684 13.5639 292.91 14.5864 292.91 15.7748V25.5721H290.45V16.0788C290.45 15.2682 290.307 14.568 290.022 13.9784C289.745 13.3888 289.344 12.942 288.819 12.638C288.303 12.3248 287.686 12.1682 286.968 12.1682C286.212 12.1682 285.53 12.3571 284.922 12.7348C284.324 13.1125 283.845 13.6376 283.485 14.3101C283.135 14.9734 282.96 15.7242 282.96 16.5625V25.5721ZM296.489 10.3165H298.934V25.5721H296.489V10.3165ZM296.378 4.74768H299.183V7.63574H296.378V4.74768ZM304.158 6.64081H306.562V25.5721H304.158V6.64081ZM301.422 10.3165H309.298V12.4031H301.422V10.3165ZM318.184 28.3358C317.898 29.1097 317.548 29.7453 317.133 30.2428C316.719 30.7495 316.221 31.1226 315.641 31.3621C315.07 31.6108 314.397 31.7352 313.623 31.7352H311.813V29.4551L313.513 29.469C313.918 29.4782 314.273 29.4229 314.577 29.3031C314.881 29.1926 315.144 29.0129 315.365 28.7642C315.586 28.5247 315.788 28.2069 315.973 27.8107C316.009 27.737 316.037 27.6679 316.056 27.6035C316.083 27.539 316.115 27.4653 316.152 27.3824L316.857 25.586L310.846 10.3165H313.499L319.068 24.895L317.175 24.9089L322.301 10.3165H324.844L318.184 28.3358Z" fill="#4F4F4F"/>
</svg>
